<svg xmlns="http://www.w3.org/2000/svg" viewBox="0 0 1200 630" width="1200" height="630">
  <defs><pattern id="pg" width="60" height="60" patternUnits="userSpaceOnUse"><path d="M 60 0 L 0 0 0 60" fill="none" stroke="#12CFA0" stroke-width="0.4" opacity="0.08"/></pattern></defs>
  <rect width="1200" height="630" fill="#0B1220"/>
  <rect width="1200" height="630" fill="url(#pg)"/>
  <g transform="translate(672, 142) scale(0.98)">
    <g stroke="#12CFA0" opacity="0.6" fill="none">
      <rect x="50" y="241" width="10" height="30" stroke-width="5" stroke-linejoin="round"/>
      <rect x="452" y="241" width="10" height="30" stroke-width="5" stroke-linejoin="round"/>
      <rect x="60" y="115" width="392" height="282" stroke-width="7"/>
      <path d="M 60 129 A 14 14 0 0 1 74 115" stroke-width="4"/>
      <path d="M 438 115 A 14 14 0 0 1 452 129" stroke-width="4"/>
      <path d="M 74 397 A 14 14 0 0 1 60 383" stroke-width="4"/>
      <path d="M 452 383 A 14 14 0 0 1 438 397" stroke-width="4"/>
      <line x1="256" y1="115" x2="256" y2="397" stroke-width="5"/>
      <circle cx="256" cy="256" r="44" stroke-width="5"/>
      <circle cx="256" cy="256" r="5" fill="#12CFA0" stroke="none"/>
      <rect x="60" y="181" width="62" height="150" stroke-width="4.5"/>
      <circle cx="101" cy="256" r="4" fill="#12CFA0" stroke="none"/>
      <path d="M 122 224.3 A 38 38 0 0 1 122 287.7" stroke-width="4.5"/>
      <rect x="390" y="181" width="62" height="150" stroke-width="4.5"/>
      <circle cx="411" cy="256" r="4" fill="#12CFA0" stroke="none"/>
      <path d="M 390 224.3 A 38 38 0 0 0 390 287.7" stroke-width="4.5"/>
    </g>
    <g>
      <path d="M 145 312 C 205 188, 315 182, 366 210" fill="none" stroke="#0B1220" stroke-width="25" stroke-linecap="round"/>
      <polygon points="400,228 350,227 373,187" fill="#0B1220"/>
      <circle cx="145" cy="312" r="18" fill="#0B1220"/>
      <path d="M 145 312 C 205 188, 315 182, 366 210" fill="none" stroke="#2EE6A6" stroke-width="15" stroke-linecap="round"/>
      <polygon points="396,226 356,225 373,193" fill="#2EE6A6"/>
      <circle cx="145" cy="312" r="13" fill="#2EE6A6"/>
    </g>
  </g>
  <g transform="translate(60, 52) scale(0.16)">
    <rect width="512" height="512" rx="96" fill="#0B1220"/>
    <g stroke="#12CFA0" opacity="0.7" fill="none">
      <rect x="50" y="241" width="10" height="30" stroke-width="5" stroke-linejoin="round"/>
      <rect x="452" y="241" width="10" height="30" stroke-width="5" stroke-linejoin="round"/>
      <rect x="60" y="115" width="392" height="282" stroke-width="7"/>
      <path d="M 60 129 A 14 14 0 0 1 74 115" stroke-width="4"/>
      <path d="M 438 115 A 14 14 0 0 1 452 129" stroke-width="4"/>
      <path d="M 74 397 A 14 14 0 0 1 60 383" stroke-width="4"/>
      <path d="M 452 383 A 14 14 0 0 1 438 397" stroke-width="4"/>
      <line x1="256" y1="115" x2="256" y2="397" stroke-width="5"/>
      <circle cx="256" cy="256" r="44" stroke-width="5"/>
      <circle cx="256" cy="256" r="5" fill="#12CFA0" stroke="none"/>
      <rect x="60" y="181" width="62" height="150" stroke-width="4.5"/>
      <circle cx="101" cy="256" r="4" fill="#12CFA0" stroke="none"/>
      <path d="M 122 224.3 A 38 38 0 0 1 122 287.7" stroke-width="4.5"/>
      <rect x="390" y="181" width="62" height="150" stroke-width="4.5"/>
      <circle cx="411" cy="256" r="4" fill="#12CFA0" stroke="none"/>
      <path d="M 390 224.3 A 38 38 0 0 0 390 287.7" stroke-width="4.5"/>
    </g>
    <g>
      <path d="M 145 312 C 205 188, 315 182, 366 210" fill="none" stroke="#0B1220" stroke-width="25" stroke-linecap="round"/>
      <polygon points="400,228 350,227 373,187" fill="#0B1220"/>
      <circle cx="145" cy="312" r="18" fill="#0B1220"/>
      <path d="M 145 312 C 205 188, 315 182, 366 210" fill="none" stroke="#2EE6A6" stroke-width="15" stroke-linecap="round"/>
      <polygon points="396,226 356,225 373,193" fill="#2EE6A6"/>
      <circle cx="145" cy="312" r="13" fill="#2EE6A6"/>
    </g>
  </g>
  <text x="150" y="120" font-family="Inter, system-ui, sans-serif" font-weight="700" font-size="30" fill="#E8EEF9" letter-spacing="4">TMC STUDIO</text>
  <text x="60" y="296" font-family="Inter, system-ui, sans-serif" font-weight="800" font-size="78" fill="#E8EEF9" letter-spacing="-1">Draw tactics</text>
  <text x="60" y="388" font-family="Inter, system-ui, sans-serif" font-weight="800" font-size="78" fill="#2EE6A6" letter-spacing="-1">in seconds.</text>
  <line x1="62" y1="436" x2="430" y2="436" stroke="#12CFA0" stroke-width="1.5" opacity="0.3"/>
  <text x="62" y="474" font-family="Inter, system-ui, sans-serif" font-weight="600" font-size="22" fill="#12CFA0" letter-spacing="1">Tactical Board &amp; Animation</text>
  <text x="62" y="506" font-family="Inter, system-ui, sans-serif" font-weight="400" font-size="17" fill="#516079" letter-spacing="1">by Tactics Made Clear</text>
</svg>
