<svg xmlns="http://www.w3.org/2000/svg" viewBox="0 0 512 512" width="512" height="512">
  <rect width="512" height="512" rx="96" fill="#0B1220"/>
    <g stroke="#12CFA0" opacity="0.7" fill="none">
      <!-- bramki -->
      <rect x="50" y="241" width="10" height="30" stroke-width="5" stroke-linejoin="round"/>
      <rect x="452" y="241" width="10" height="30" stroke-width="5" stroke-linejoin="round"/>
      <!-- obramowanie -->
      <rect x="60" y="115" width="392" height="282" stroke-width="7"/>
      <!-- luki narozne (rzuty rozne) -->
      <path d="M 60 129 A 14 14 0 0 1 74 115" stroke-width="4"/>
      <path d="M 438 115 A 14 14 0 0 1 452 129" stroke-width="4"/>
      <path d="M 74 397 A 14 14 0 0 1 60 383" stroke-width="4"/>
      <path d="M 452 383 A 14 14 0 0 1 438 397" stroke-width="4"/>
      <!-- linia srodkowa + kolo + punkt -->
      <line x1="256" y1="115" x2="256" y2="397" stroke-width="5"/>
      <circle cx="256" cy="256" r="44" stroke-width="5"/>
      <circle cx="256" cy="256" r="5" fill="#12CFA0" stroke="none"/>
      <!-- pole karne lewe + 11m + luk (D) -->
      <rect x="60" y="181" width="62" height="150" stroke-width="4.5"/>
      <circle cx="101" cy="256" r="4" fill="#12CFA0" stroke="none"/>
      <path d="M 122 224.3 A 38 38 0 0 1 122 287.7" stroke-width="4.5"/>
      <!-- pole karne prawe + 11m + luk (D) -->
      <rect x="390" y="181" width="62" height="150" stroke-width="4.5"/>
      <circle cx="411" cy="256" r="4" fill="#12CFA0" stroke="none"/>
      <path d="M 390 224.3 A 38 38 0 0 0 390 287.7" stroke-width="4.5"/>
    </g>
    <g>
      <path d="M 145 312 C 205 188, 315 182, 366 210" fill="none" stroke="#0B1220" stroke-width="25" stroke-linecap="round"/>
      <polygon points="400,228 350,227 373,187" fill="#0B1220"/>
      <circle cx="145" cy="312" r="18" fill="#0B1220"/>
      <path d="M 145 312 C 205 188, 315 182, 366 210" fill="none" stroke="#2EE6A6" stroke-width="15" stroke-linecap="round"/>
      <polygon points="396,226 356,225 373,193" fill="#2EE6A6"/>
      <circle cx="145" cy="312" r="13" fill="#2EE6A6"/>
    </g>
</svg>
