<svg xmlns="http://www.w3.org/2000/svg" viewBox="0 0 820 312" width="820" height="312"><defs><filter id="glow" x="-40%" y="-40%" width="180%" height="180%"><feGaussianBlur stdDeviation="6" result="b"/><feMerge><feMergeNode in="b"/><feMergeNode in="SourceGraphic"/></feMerge></filter><pattern id="g" width="60" height="60" patternUnits="userSpaceOnUse"><path d="M 60 0 L 0 0 0 60" fill="none" stroke="#12CFA0" stroke-width="1" opacity="0.06"/></pattern><rect width="820" height="312" fill="url(#g)"/></defs><rect width="820" height="312" fill="#0B1220"/><rect width="820" height="312" fill="url(#g)"/><g opacity="0.5"><g stroke="#12CFA0" stroke-opacity="0.7" fill="none" stroke-width="2.64" stroke-linejoin="round" stroke-linecap="round"><rect x="480.0" y="39.4" width="360.0" height="233.1" rx="20.6"/><line x1="660.0" y1="39.4" x2="660.0" y2="272.6"/><circle cx="660.0" cy="156.0" r="31.4"/></g><circle cx="660.0" cy="156.0" r="5.5" fill="#12CFA0" fill-opacity="0.7"/><g stroke="#12CFA0" stroke-opacity="0.7" fill="none" stroke-width="2.64" stroke-linejoin="round" stroke-linecap="round"><rect x="480.0" y="86.9" width="56.6" height="138.2"/><rect x="480.0" y="124.6" width="18.9" height="62.8"/></g><circle cx="517.7" cy="156.0" r="4.8" fill="#12CFA0" fill-opacity="0.7"/><g stroke="#12CFA0" stroke-opacity="0.7" fill="none" stroke-width="2.64" stroke-linejoin="round" stroke-linecap="round"><path d="M 536.6 130.9 A 31.4 31.4 0 0 1 536.6 181.1"/><rect x="472.5" y="143.5" width="7.5" height="25.1" stroke-opacity="0.42"/><rect x="783.4" y="86.9" width="56.6" height="138.2"/><rect x="821.1" y="124.6" width="18.9" height="62.8"/></g><circle cx="802.3" cy="156.0" r="4.8" fill="#12CFA0" fill-opacity="0.7"/><g stroke="#12CFA0" stroke-opacity="0.7" fill="none" stroke-width="2.64" stroke-linejoin="round" stroke-linecap="round"><path d="M 783.4 130.9 A 31.4 31.4 0 0 0 783.4 181.1"/><rect x="840.0" y="143.5" width="7.5" height="25.1" stroke-opacity="0.42"/></g><g filter="url(#glow)"><path d="M 582.9 176.6 Q 668.6 87.4 754.3 142.3" fill="none" stroke="#2EE6A6" stroke-width="11.7" stroke-linecap="round"/><polygon points="754.3,142.3 730.3,140.6 742.7,121.2" fill="#2EE6A6"/><circle cx="582.9" cy="176.6" r="8.9" fill="#2EE6A6"/></g></g><g transform="translate(20.0,75.0) scale(0.2930)"><rect width="512" height="512" rx="96" fill="#0B1220"/><g stroke="#12CFA0" opacity="0.7" fill="none"><rect x="50" y="241" width="10" height="30" stroke-width="5" stroke-linejoin="round"/><rect x="452" y="241" width="10" height="30" stroke-width="5" stroke-linejoin="round"/><rect x="60" y="115" width="392" height="282" stroke-width="7"/><path d="M 60 129 A 14 14 0 0 1 74 115" stroke-width="4"/><path d="M 438 115 A 14 14 0 0 1 452 129" stroke-width="4"/><path d="M 74 397 A 14 14 0 0 1 60 383" stroke-width="4"/><path d="M 452 383 A 14 14 0 0 1 438 397" stroke-width="4"/><line x1="256" y1="115" x2="256" y2="397" stroke-width="5"/><circle cx="256" cy="256" r="44" stroke-width="5"/></g><circle cx="256" cy="256" r="5" fill="#12CFA0"/><g stroke="#12CFA0" opacity="0.7" fill="none"><rect x="60" y="181" width="62" height="150" stroke-width="4.5"/></g><circle cx="101" cy="256" r="4" fill="#12CFA0"/><g stroke="#12CFA0" opacity="0.7" fill="none"><path d="M 122 224.3 A 38 38 0 0 1 122 287.7" stroke-width="4.5"/><rect x="390" y="181" width="62" height="150" stroke-width="4.5"/></g><circle cx="411" cy="256" r="4" fill="#12CFA0"/><g stroke="#12CFA0" opacity="0.7" fill="none"><path d="M 390 224.3 A 38 38 0 0 0 390 287.7" stroke-width="4.5"/></g><g><path d="M 145 312 C 205 188, 315 182, 366 210" fill="none" stroke="#0B1220" stroke-width="25" stroke-linecap="round"/><polygon points="400,228 350,227 373,187" fill="#0B1220"/><circle cx="145" cy="312" r="18" fill="#0B1220"/><path d="M 145 312 C 205 188, 315 182, 366 210" fill="none" stroke="#2EE6A6" stroke-width="15" stroke-linecap="round"/><polygon points="396,226 356,225 373,193" fill="#2EE6A6"/><circle cx="145" cy="312" r="13" fill="#2EE6A6"/></g></g><text x="195" y="120" font-family="Inter, 'Helvetica Neue', Arial, sans-serif" font-weight="800" font-size="52" fill="#E8EEF9" letter-spacing="-1">Draw tactics <tspan fill="#2EE6A6">in seconds.</tspan></text><text x="197" y="166" font-family="Inter, 'Helvetica Neue', Arial, sans-serif" font-weight="600" font-size="22" fill="#12CFA0" letter-spacing="1">Browser-first tactics board</text><text x="197" y="206" font-family="Inter, 'Helvetica Neue', Arial, sans-serif" font-weight="400" font-size="19" fill="#A7B3C9" letter-spacing="1">tmcstudio.app · bez konta · w przegladarce</text></svg>