<svg xmlns="http://www.w3.org/2000/svg" viewBox="0 0 1080 1350" width="1080" height="1350"><defs><filter id="glow" x="-40%" y="-40%" width="180%" height="180%"><feGaussianBlur stdDeviation="6" result="b"/><feMerge><feMergeNode in="b"/><feMergeNode in="SourceGraphic"/></feMerge></filter><pattern id="g" width="60" height="60" patternUnits="userSpaceOnUse"><path d="M 60 0 L 0 0 0 60" fill="none" stroke="#12CFA0" stroke-width="1" opacity="0.06"/></pattern><rect width="1080" height="1350" fill="url(#g)"/></defs><rect width="1080" height="1350" fill="#0B1220"/><rect width="1080" height="1350" fill="url(#g)"/><text x="540" y="150" font-family="Inter, 'Helvetica Neue', Arial, sans-serif" font-weight="700" font-size="30" fill="#12CFA0" letter-spacing="6" text-anchor="middle">PREMIERA</text><text x="540" y="270" font-family="Inter, 'Helvetica Neue', Arial, sans-serif" font-weight="800" font-size="92" fill="#E8EEF9" letter-spacing="-2" text-anchor="middle">Narysuj taktykę</text><text x="540" y="372" font-family="Inter, 'Helvetica Neue', Arial, sans-serif" font-weight="800" font-size="92" fill="#2EE6A6" letter-spacing="-2" text-anchor="middle">w 30 sekund</text><g stroke="#12CFA0" stroke-opacity="0.7" fill="none" stroke-width="2.4" stroke-linejoin="round" stroke-linecap="round"><rect x="130.0" y="494.5" width="820.0" height="531.0" rx="46.9"/><line x1="540.0" y1="494.5" x2="540.0" y2="1025.5"/><circle cx="540.0" cy="760.0" r="71.5"/></g><circle cx="540.0" cy="760.0" r="12.5" fill="#12CFA0" fill-opacity="0.7"/><g stroke="#12CFA0" stroke-opacity="0.7" fill="none" stroke-width="2.4" stroke-linejoin="round" stroke-linecap="round"><rect x="130.0" y="602.6" width="128.9" height="314.7"/><rect x="130.0" y="688.5" width="43.0" height="143.1"/></g><circle cx="215.9" cy="760.0" r="10.9" fill="#12CFA0" fill-opacity="0.7"/><g stroke="#12CFA0" stroke-opacity="0.7" fill="none" stroke-width="2.4" stroke-linejoin="round" stroke-linecap="round"><path d="M 258.9 702.9 A 71.5 71.5 0 0 1 258.9 817.1"/><rect x="112.8" y="731.4" width="17.2" height="57.2" stroke-opacity="0.42"/><rect x="821.1" y="602.6" width="128.9" height="314.7"/><rect x="907.0" y="688.5" width="43.0" height="143.1"/></g><circle cx="864.1" cy="760.0" r="10.9" fill="#12CFA0" fill-opacity="0.7"/><g stroke="#12CFA0" stroke-opacity="0.7" fill="none" stroke-width="2.4" stroke-linejoin="round" stroke-linecap="round"><path d="M 821.1 702.9 A 71.5 71.5 0 0 0 821.1 817.1"/><rect x="950.0" y="731.4" width="17.2" height="57.2" stroke-opacity="0.42"/></g><circle cx="286.2" cy="760.0" r="13.3" fill="#2EE6A6"/><circle cx="395.5" cy="635.0" r="13.3" fill="#2EE6A6"/><circle cx="395.5" cy="885.0" r="13.3" fill="#2EE6A6"/><circle cx="520.5" cy="697.5" r="13.3" fill="#2EE6A6"/><circle cx="520.5" cy="822.5" r="13.3" fill="#2EE6A6"/><circle cx="614.2" cy="760.0" r="13.3" fill="#2EE6A6"/><g filter="url(#glow)"><path d="M 364.3 806.9 Q 559.5 603.8 754.8 728.8" fill="none" stroke="#2EE6A6" stroke-width="26.6" stroke-linecap="round"/><polygon points="754.8,728.8 700.2,725.0 728.5,680.8" fill="#2EE6A6"/><circle cx="364.3" cy="806.9" r="20.3" fill="#2EE6A6"/></g><rect x="320" y="1170" width="440" height="78" rx="39" fill="#12CFA0"/><text x="540" y="1221" font-family="Inter, 'Helvetica Neue', Arial, sans-serif" font-weight="700" font-size="30" fill="#0B1220" text-anchor="middle">Otwórz tablicę — bez konta</text><g transform="translate(85.0,1260.0) scale(0.1367)"><rect width="512" height="512" rx="96" fill="#0B1220"/><g stroke="#12CFA0" opacity="0.7" fill="none"><rect x="50" y="241" width="10" height="30" stroke-width="5" stroke-linejoin="round"/><rect x="452" y="241" width="10" height="30" stroke-width="5" stroke-linejoin="round"/><rect x="60" y="115" width="392" height="282" stroke-width="7"/><path d="M 60 129 A 14 14 0 0 1 74 115" stroke-width="4"/><path d="M 438 115 A 14 14 0 0 1 452 129" stroke-width="4"/><path d="M 74 397 A 14 14 0 0 1 60 383" stroke-width="4"/><path d="M 452 383 A 14 14 0 0 1 438 397" stroke-width="4"/><line x1="256" y1="115" x2="256" y2="397" stroke-width="5"/><circle cx="256" cy="256" r="44" stroke-width="5"/></g><circle cx="256" cy="256" r="5" fill="#12CFA0"/><g stroke="#12CFA0" opacity="0.7" fill="none"><rect x="60" y="181" width="62" height="150" stroke-width="4.5"/></g><circle cx="101" cy="256" r="4" fill="#12CFA0"/><g stroke="#12CFA0" opacity="0.7" fill="none"><path d="M 122 224.3 A 38 38 0 0 1 122 287.7" stroke-width="4.5"/><rect x="390" y="181" width="62" height="150" stroke-width="4.5"/></g><circle cx="411" cy="256" r="4" fill="#12CFA0"/><g stroke="#12CFA0" opacity="0.7" fill="none"><path d="M 390 224.3 A 38 38 0 0 0 390 287.7" stroke-width="4.5"/></g><g><path d="M 145 312 C 205 188, 315 182, 366 210" fill="none" stroke="#0B1220" stroke-width="25" stroke-linecap="round"/><polygon points="400,228 350,227 373,187" fill="#0B1220"/><circle cx="145" cy="312" r="18" fill="#0B1220"/><path d="M 145 312 C 205 188, 315 182, 366 210" fill="none" stroke="#2EE6A6" stroke-width="15" stroke-linecap="round"/><polygon points="396,226 356,225 373,193" fill="#2EE6A6"/><circle cx="145" cy="312" r="13" fill="#2EE6A6"/></g></g><text x="180" y="1308" font-family="Inter, 'Helvetica Neue', Arial, sans-serif" font-weight="700" font-size="30" fill="#E8EEF9" letter-spacing="2">TMC STUDIO</text></svg>