<svg xmlns="http://www.w3.org/2000/svg" viewBox="0 0 1080 1920" width="1080" height="1920"><defs><filter id="glow" x="-40%" y="-40%" width="180%" height="180%"><feGaussianBlur stdDeviation="6" result="b"/><feMerge><feMergeNode in="b"/><feMergeNode in="SourceGraphic"/></feMerge></filter><pattern id="g" width="60" height="60" patternUnits="userSpaceOnUse"><path d="M 60 0 L 0 0 0 60" fill="none" stroke="#12CFA0" stroke-width="1" opacity="0.06"/></pattern><rect width="1080" height="1920" fill="url(#g)"/></defs><rect width="1080" height="1920" fill="#0B1220"/><rect width="1080" height="1920" fill="url(#g)"/><text x="540" y="360" font-family="Inter, 'Helvetica Neue', Arial, sans-serif" font-weight="700" font-size="32" fill="#12CFA0" letter-spacing="8" text-anchor="middle">PREMIERA · DZIŚ</text><text x="540" y="500" font-family="Inter, 'Helvetica Neue', Arial, sans-serif" font-weight="800" font-size="104" fill="#E8EEF9" letter-spacing="-2" text-anchor="middle">Draw tactics</text><text x="540" y="616" font-family="Inter, 'Helvetica Neue', Arial, sans-serif" font-weight="800" font-size="104" fill="#2EE6A6" letter-spacing="-2" text-anchor="middle">in seconds.</text><g stroke="#12CFA0" stroke-opacity="0.7" fill="none" stroke-width="2.4" stroke-linejoin="round" stroke-linecap="round"><rect x="110.0" y="801.5" width="860.0" height="557.0" rx="49.1"/><line x1="540.0" y1="801.5" x2="540.0" y2="1358.5"/><circle cx="540.0" cy="1080.0" r="74.9"/></g><circle cx="540.0" cy="1080.0" r="13.1" fill="#12CFA0" fill-opacity="0.7"/><g stroke="#12CFA0" stroke-opacity="0.7" fill="none" stroke-width="2.4" stroke-linejoin="round" stroke-linecap="round"><rect x="110.0" y="915.0" width="135.1" height="330.1"/><rect x="110.0" y="1005.0" width="45.0" height="150.0"/></g><circle cx="200.1" cy="1080.0" r="11.5" fill="#12CFA0" fill-opacity="0.7"/><g stroke="#12CFA0" stroke-opacity="0.7" fill="none" stroke-width="2.4" stroke-linejoin="round" stroke-linecap="round"><path d="M 245.1 1020.1 A 74.9 74.9 0 0 1 245.1 1139.9"/><rect x="92.0" y="1050.0" width="18.0" height="60.0" stroke-opacity="0.42"/><rect x="834.9" y="915.0" width="135.1" height="330.1"/><rect x="925.0" y="1005.0" width="45.0" height="150.0"/></g><circle cx="879.9" cy="1080.0" r="11.5" fill="#12CFA0" fill-opacity="0.7"/><g stroke="#12CFA0" stroke-opacity="0.7" fill="none" stroke-width="2.4" stroke-linejoin="round" stroke-linecap="round"><path d="M 834.9 1020.1 A 74.9 74.9 0 0 0 834.9 1139.9"/><rect x="970.0" y="1050.0" width="18.0" height="60.0" stroke-opacity="0.42"/></g><circle cx="273.8" cy="1080.0" r="13.9" fill="#2EE6A6"/><circle cx="388.5" cy="949.0" r="13.9" fill="#2EE6A6"/><circle cx="388.5" cy="1211.0" r="13.9" fill="#2EE6A6"/><circle cx="519.5" cy="1014.5" r="13.9" fill="#2EE6A6"/><circle cx="519.5" cy="1145.5" r="13.9" fill="#2EE6A6"/><circle cx="617.8" cy="1080.0" r="13.9" fill="#2EE6A6"/><g filter="url(#glow)"><path d="M 355.7 1129.1 Q 560.5 916.2 765.2 1047.2" fill="none" stroke="#2EE6A6" stroke-width="27.8" stroke-linecap="round"/><polygon points="765.2,1047.2 708.0,1043.3 737.7,997.0" fill="#2EE6A6"/><circle cx="355.7" cy="1129.1" r="21.3" fill="#2EE6A6"/></g><rect x="300" y="1560" width="480" height="84" rx="42" fill="#12CFA0"/><text x="540" y="1614" font-family="Inter, 'Helvetica Neue', Arial, sans-serif" font-weight="700" font-size="32" fill="#0B1220" text-anchor="middle">Otwórz tablicę</text><text x="540" y="1730" font-family="Inter, 'Helvetica Neue', Arial, sans-serif" font-weight="400" font-size="30" fill="#A7B3C9" letter-spacing="2" text-anchor="middle">Bez konta · W przeglądarce · Za darmo</text><g transform="translate(504.0,1792.0) scale(0.1406)"><rect width="512" height="512" rx="96" fill="#0B1220"/><g stroke="#12CFA0" opacity="0.7" fill="none"><rect x="50" y="241" width="10" height="30" stroke-width="5" stroke-linejoin="round"/><rect x="452" y="241" width="10" height="30" stroke-width="5" stroke-linejoin="round"/><rect x="60" y="115" width="392" height="282" stroke-width="7"/><path d="M 60 129 A 14 14 0 0 1 74 115" stroke-width="4"/><path d="M 438 115 A 14 14 0 0 1 452 129" stroke-width="4"/><path d="M 74 397 A 14 14 0 0 1 60 383" stroke-width="4"/><path d="M 452 383 A 14 14 0 0 1 438 397" stroke-width="4"/><line x1="256" y1="115" x2="256" y2="397" stroke-width="5"/><circle cx="256" cy="256" r="44" stroke-width="5"/></g><circle cx="256" cy="256" r="5" fill="#12CFA0"/><g stroke="#12CFA0" opacity="0.7" fill="none"><rect x="60" y="181" width="62" height="150" stroke-width="4.5"/></g><circle cx="101" cy="256" r="4" fill="#12CFA0"/><g stroke="#12CFA0" opacity="0.7" fill="none"><path d="M 122 224.3 A 38 38 0 0 1 122 287.7" stroke-width="4.5"/><rect x="390" y="181" width="62" height="150" stroke-width="4.5"/></g><circle cx="411" cy="256" r="4" fill="#12CFA0"/><g stroke="#12CFA0" opacity="0.7" fill="none"><path d="M 390 224.3 A 38 38 0 0 0 390 287.7" stroke-width="4.5"/></g><g><path d="M 145 312 C 205 188, 315 182, 366 210" fill="none" stroke="#0B1220" stroke-width="25" stroke-linecap="round"/><polygon points="400,228 350,227 373,187" fill="#0B1220"/><circle cx="145" cy="312" r="18" fill="#0B1220"/><path d="M 145 312 C 205 188, 315 182, 366 210" fill="none" stroke="#2EE6A6" stroke-width="15" stroke-linecap="round"/><polygon points="396,226 356,225 373,193" fill="#2EE6A6"/><circle cx="145" cy="312" r="13" fill="#2EE6A6"/></g></g></svg>