<svg xmlns="http://www.w3.org/2000/svg" viewBox="0 0 1920 1080" width="1920" height="1080"><defs><filter id="glow" x="-40%" y="-40%" width="180%" height="180%"><feGaussianBlur stdDeviation="6" result="b"/><feMerge><feMergeNode in="b"/><feMergeNode in="SourceGraphic"/></feMerge></filter><pattern id="g" width="60" height="60" patternUnits="userSpaceOnUse"><path d="M 60 0 L 0 0 0 60" fill="none" stroke="#12CFA0" stroke-width="1" opacity="0.06"/></pattern><rect width="1920" height="1080" fill="url(#g)"/></defs><rect width="1920" height="1080" fill="#0B1220"/><rect width="1920" height="1080" fill="url(#g)"/><text x="120" y="470" font-family="Inter, 'Helvetica Neue', Arial, sans-serif" font-weight="800" font-size="120" fill="#E8EEF9" letter-spacing="-3">Draw tactics</text><text x="120" y="610" font-family="Inter, 'Helvetica Neue', Arial, sans-serif" font-weight="800" font-size="120" fill="#2EE6A6" letter-spacing="-3">in seconds.</text><text x="126" y="694" font-family="Inter, 'Helvetica Neue', Arial, sans-serif" font-weight="500" font-size="38" fill="#A7B3C9" letter-spacing="1">Browser-first football tactics board &amp; animation.</text><g stroke="#12CFA0" stroke-opacity="0.7" fill="none" stroke-width="2.4" stroke-linejoin="round" stroke-linecap="round"><rect x="1120.0" y="313.9" width="760.0" height="492.2" rx="43.4"/><line x1="1500.0" y1="313.9" x2="1500.0" y2="806.1"/><circle cx="1500.0" cy="560.0" r="66.2"/></g><circle cx="1500.0" cy="560.0" r="11.6" fill="#12CFA0" fill-opacity="0.7"/><g stroke="#12CFA0" stroke-opacity="0.7" fill="none" stroke-width="2.4" stroke-linejoin="round" stroke-linecap="round"><rect x="1120.0" y="414.2" width="119.4" height="291.7"/><rect x="1120.0" y="493.7" width="39.8" height="132.6"/></g><circle cx="1199.6" cy="560.0" r="10.1" fill="#12CFA0" fill-opacity="0.7"/><g stroke="#12CFA0" stroke-opacity="0.7" fill="none" stroke-width="2.4" stroke-linejoin="round" stroke-linecap="round"><path d="M 1239.4 507.1 A 66.2 66.2 0 0 1 1239.4 612.9"/><rect x="1104.1" y="533.5" width="15.9" height="53.0" stroke-opacity="0.42"/><rect x="1760.6" y="414.2" width="119.4" height="291.7"/><rect x="1840.2" y="493.7" width="39.8" height="132.6"/></g><circle cx="1800.4" cy="560.0" r="10.1" fill="#12CFA0" fill-opacity="0.7"/><g stroke="#12CFA0" stroke-opacity="0.7" fill="none" stroke-width="2.4" stroke-linejoin="round" stroke-linecap="round"><path d="M 1760.6 507.1 A 66.2 66.2 0 0 0 1760.6 612.9"/><rect x="1880.0" y="533.5" width="15.9" height="53.0" stroke-opacity="0.42"/></g><circle cx="1264.8" cy="560.0" r="12.3" fill="#2EE6A6"/><circle cx="1366.1" cy="444.2" r="12.3" fill="#2EE6A6"/><circle cx="1366.1" cy="675.8" r="12.3" fill="#2EE6A6"/><circle cx="1481.9" cy="502.1" r="12.3" fill="#2EE6A6"/><circle cx="1481.9" cy="617.9" r="12.3" fill="#2EE6A6"/><circle cx="1568.8" cy="560.0" r="12.3" fill="#2EE6A6"/><g filter="url(#glow)"><path d="M 1337.1 603.4 Q 1518.1 415.2 1699.0 531.0" fill="none" stroke="#2EE6A6" stroke-width="24.6" stroke-linecap="round"/><polygon points="1699.0,531.0 1648.5,527.5 1674.7,486.6" fill="#2EE6A6"/><circle cx="1337.1" cy="603.4" r="18.8" fill="#2EE6A6"/></g><g transform="translate(75.0,105.0) scale(0.1758)"><rect width="512" height="512" rx="96" fill="#0B1220"/><g stroke="#12CFA0" opacity="0.7" fill="none"><rect x="50" y="241" width="10" height="30" stroke-width="5" stroke-linejoin="round"/><rect x="452" y="241" width="10" height="30" stroke-width="5" stroke-linejoin="round"/><rect x="60" y="115" width="392" height="282" stroke-width="7"/><path d="M 60 129 A 14 14 0 0 1 74 115" stroke-width="4"/><path d="M 438 115 A 14 14 0 0 1 452 129" stroke-width="4"/><path d="M 74 397 A 14 14 0 0 1 60 383" stroke-width="4"/><path d="M 452 383 A 14 14 0 0 1 438 397" stroke-width="4"/><line x1="256" y1="115" x2="256" y2="397" stroke-width="5"/><circle cx="256" cy="256" r="44" stroke-width="5"/></g><circle cx="256" cy="256" r="5" fill="#12CFA0"/><g stroke="#12CFA0" opacity="0.7" fill="none"><rect x="60" y="181" width="62" height="150" stroke-width="4.5"/></g><circle cx="101" cy="256" r="4" fill="#12CFA0"/><g stroke="#12CFA0" opacity="0.7" fill="none"><path d="M 122 224.3 A 38 38 0 0 1 122 287.7" stroke-width="4.5"/><rect x="390" y="181" width="62" height="150" stroke-width="4.5"/></g><circle cx="411" cy="256" r="4" fill="#12CFA0"/><g stroke="#12CFA0" opacity="0.7" fill="none"><path d="M 390 224.3 A 38 38 0 0 0 390 287.7" stroke-width="4.5"/></g><g><path d="M 145 312 C 205 188, 315 182, 366 210" fill="none" stroke="#0B1220" stroke-width="25" stroke-linecap="round"/><polygon points="400,228 350,227 373,187" fill="#0B1220"/><circle cx="145" cy="312" r="18" fill="#0B1220"/><path d="M 145 312 C 205 188, 315 182, 366 210" fill="none" stroke="#2EE6A6" stroke-width="15" stroke-linecap="round"/><polygon points="396,226 356,225 373,193" fill="#2EE6A6"/><circle cx="145" cy="312" r="13" fill="#2EE6A6"/></g></g><text x="190" y="168" font-family="Inter, 'Helvetica Neue', Arial, sans-serif" font-weight="700" font-size="40" fill="#E8EEF9" letter-spacing="3">TMC STUDIO</text></svg>