<svg xmlns="http://www.w3.org/2000/svg" viewBox="0 0 1600 900" width="1600" height="900"><defs><filter id="glow" x="-40%" y="-40%" width="180%" height="180%"><feGaussianBlur stdDeviation="6" result="b"/><feMerge><feMergeNode in="b"/><feMergeNode in="SourceGraphic"/></feMerge></filter><pattern id="g" width="60" height="60" patternUnits="userSpaceOnUse"><path d="M 60 0 L 0 0 0 60" fill="none" stroke="#12CFA0" stroke-width="1" opacity="0.06"/></pattern><rect width="1600" height="900" fill="url(#g)"/></defs><rect width="1600" height="900" fill="#0B1220"/><rect width="1600" height="900" fill="url(#g)"/><text x="90" y="150" font-family="Inter, 'Helvetica Neue', Arial, sans-serif" font-weight="700" font-size="30" fill="#12CFA0" letter-spacing="6">PREMIERA</text><text x="90" y="300" font-family="Inter, 'Helvetica Neue', Arial, sans-serif" font-weight="800" font-size="110" fill="#E8EEF9" letter-spacing="-2">Draw any tactic</text><text x="90" y="420" font-family="Inter, 'Helvetica Neue', Arial, sans-serif" font-weight="800" font-size="110" fill="#2EE6A6" letter-spacing="-2">in 30 seconds.</text><text x="90" y="500" font-family="Inter, 'Helvetica Neue', Arial, sans-serif" font-weight="400" font-size="34" fill="#A7B3C9" letter-spacing="1">Browser-first tactics board for coaches &amp; creators.</text><rect x="90" y="560" width="430" height="84" rx="42" fill="#12CFA0"/><text x="305" y="613" font-family="Inter, 'Helvetica Neue', Arial, sans-serif" font-weight="700" font-size="32" fill="#0B1220" text-anchor="middle">Open the board — no signup</text><g stroke="#12CFA0" stroke-opacity="0.7" fill="none" stroke-width="2.4" stroke-linejoin="round" stroke-linecap="round"><rect x="920.0" y="269.2" width="620.0" height="401.5" rx="35.4"/><line x1="1230.0" y1="269.2" x2="1230.0" y2="670.8"/><circle cx="1230.0" cy="470.0" r="54.0"/></g><circle cx="1230.0" cy="470.0" r="9.4" fill="#12CFA0" fill-opacity="0.7"/><g stroke="#12CFA0" stroke-opacity="0.7" fill="none" stroke-width="2.4" stroke-linejoin="round" stroke-linecap="round"><rect x="920.0" y="351.0" width="97.4" height="238.0"/><rect x="920.0" y="415.9" width="32.5" height="108.2"/></g><circle cx="985.0" cy="470.0" r="8.3" fill="#12CFA0" fill-opacity="0.7"/><g stroke="#12CFA0" stroke-opacity="0.7" fill="none" stroke-width="2.4" stroke-linejoin="round" stroke-linecap="round"><path d="M 1017.4 426.8 A 54.0 54.0 0 0 1 1017.4 513.2"/><rect x="907.0" y="448.4" width="13.0" height="43.2" stroke-opacity="0.42"/><rect x="1442.6" y="351.0" width="97.4" height="238.0"/><rect x="1507.5" y="415.9" width="32.5" height="108.2"/></g><circle cx="1475.0" cy="470.0" r="8.3" fill="#12CFA0" fill-opacity="0.7"/><g stroke="#12CFA0" stroke-opacity="0.7" fill="none" stroke-width="2.4" stroke-linejoin="round" stroke-linecap="round"><path d="M 1442.6 426.8 A 54.0 54.0 0 0 0 1442.6 513.2"/><rect x="1540.0" y="448.4" width="13.0" height="43.2" stroke-opacity="0.42"/></g><circle cx="1038.1" cy="470.0" r="10.0" fill="#2EE6A6"/><circle cx="1120.8" cy="375.5" r="10.0" fill="#2EE6A6"/><circle cx="1120.8" cy="564.5" r="10.0" fill="#2EE6A6"/><circle cx="1215.2" cy="422.8" r="10.0" fill="#2EE6A6"/><circle cx="1215.2" cy="517.2" r="10.0" fill="#2EE6A6"/><circle cx="1286.1" cy="470.0" r="10.0" fill="#2EE6A6"/><g filter="url(#glow)"><path d="M 1097.1 505.4 Q 1244.8 351.9 1392.4 446.4" fill="none" stroke="#2EE6A6" stroke-width="20.1" stroke-linecap="round"/><polygon points="1392.4,446.4 1351.1,443.5 1372.5,410.1" fill="#2EE6A6"/><circle cx="1097.1" cy="505.4" r="15.4" fill="#2EE6A6"/></g><g transform="translate(85.0,765.0) scale(0.1367)"><rect width="512" height="512" rx="96" fill="#0B1220"/><g stroke="#12CFA0" opacity="0.7" fill="none"><rect x="50" y="241" width="10" height="30" stroke-width="5" stroke-linejoin="round"/><rect x="452" y="241" width="10" height="30" stroke-width="5" stroke-linejoin="round"/><rect x="60" y="115" width="392" height="282" stroke-width="7"/><path d="M 60 129 A 14 14 0 0 1 74 115" stroke-width="4"/><path d="M 438 115 A 14 14 0 0 1 452 129" stroke-width="4"/><path d="M 74 397 A 14 14 0 0 1 60 383" stroke-width="4"/><path d="M 452 383 A 14 14 0 0 1 438 397" stroke-width="4"/><line x1="256" y1="115" x2="256" y2="397" stroke-width="5"/><circle cx="256" cy="256" r="44" stroke-width="5"/></g><circle cx="256" cy="256" r="5" fill="#12CFA0"/><g stroke="#12CFA0" opacity="0.7" fill="none"><rect x="60" y="181" width="62" height="150" stroke-width="4.5"/></g><circle cx="101" cy="256" r="4" fill="#12CFA0"/><g stroke="#12CFA0" opacity="0.7" fill="none"><path d="M 122 224.3 A 38 38 0 0 1 122 287.7" stroke-width="4.5"/><rect x="390" y="181" width="62" height="150" stroke-width="4.5"/></g><circle cx="411" cy="256" r="4" fill="#12CFA0"/><g stroke="#12CFA0" opacity="0.7" fill="none"><path d="M 390 224.3 A 38 38 0 0 0 390 287.7" stroke-width="4.5"/></g><g><path d="M 145 312 C 205 188, 315 182, 366 210" fill="none" stroke="#0B1220" stroke-width="25" stroke-linecap="round"/><polygon points="400,228 350,227 373,187" fill="#0B1220"/><circle cx="145" cy="312" r="18" fill="#0B1220"/><path d="M 145 312 C 205 188, 315 182, 366 210" fill="none" stroke="#2EE6A6" stroke-width="15" stroke-linecap="round"/><polygon points="396,226 356,225 373,193" fill="#2EE6A6"/><circle cx="145" cy="312" r="13" fill="#2EE6A6"/></g></g><text x="180" y="813" font-family="Inter, 'Helvetica Neue', Arial, sans-serif" font-weight="700" font-size="30" fill="#E8EEF9" letter-spacing="2">TMC STUDIO</text></svg>